<?xml version="1.0" standalone="no"?><!DOCTYPE svg PUBLIC "-//W3C//DTD SVG 1.1//EN" "http://www.w3.org/Graphics/SVG/1.1/DTD/svg11.dtd"><svg t="1754700339658" class="icon" viewBox="0 0 1024 1024" version="1.1" xmlns="http://www.w3.org/2000/svg" p-id="967" xmlns:xlink="http://www.w3.org/1999/xlink" width="200" height="200"><path d="M0 270.684022C0 121.719926 121.719926 0 270.684022 0h482.631956c148.817623 0 270.684022 121.719926 270.684022 270.684022v482.631956c0 148.817623-121.719926 270.684022-270.684022 270.684022H270.684022C121.719926 1023.853526 0 902.1336 0 753.315978V270.684022z" fill="#C5B0FF" p-id="968"></path><path d="M847.938206 688.427979c-3.808325 0-4.980117 3.368903-5.419539 4.540695-5.273065 16.551566-27.244171 70.307538-90.081534 70.307538-37.35088 0-59.321985-30.027178-65.766843-89.495637-10.692605-100.334716 1.611214-295.731083 5.858962-357.250179 91.546274-2.197111 123.477614-14.207982 146.91346-55.660134 21.092261-37.204406 11.864397-83.929624 11.424975-85.833787a5.317008 5.317008 0 0 0-4.980117-4.247747c-2.343585 0-4.394221 1.46474-5.126592 3.515377-4.394221 12.157345-14.061508 40.426835-118.204548 41.452153-22.264054 0.146474-53.755972-0.292948-91.106852-0.878844h-2.783007c-39.987412-0.73237-85.101416-1.318266-129.629523-1.318267-104.728937 0-168.29867 3.954799-199.937062 12.30382-98.137605 26.218853-127.871835 164.343871-128.164784 165.662137-0.585896 2.343585 0.73237 4.833643 2.929481 5.858961 2.197111 1.025318 4.980117 0.292948 6.298384-1.611214 0.439422-0.585896 46.43227-58.589615 130.508368-72.504649 12.010871-1.904162 25.632957-3.515377 41.305678-4.833643 2.783007 153.79774-10.546131 280.644257-39.54799 377.317122-30.027178 99.74882-80.853669 147.792304-81.146617 148.231726-1.904162 1.46474-2.343585 4.101273-1.611214 6.15191 0.878844 1.904162 2.636533 3.222429 5.273065 3.222429 1.318266 0 132.705478-14.50093 173.425261-130.94779 27.244171-78.217136 38.669146-218.978687 32.956659-407.3443h24.31469c32.66371 0 66.352739 0.585896 98.869976 1.025318h0.73237c12.743241 0.292948 25.340009 0.439422 37.643828 0.585896-0.73237 8.056072-1.611214 17.283936-2.636533 28.26949-8.641968 92.13217-24.607638 263.36032-11.571449 349.047632 18.016307 117.765127 58.150193 159.510227 153.358318 159.510228s110.880847-90.813904 110.880847-158.924332c0-1.46474-0.439422-3.075955-1.318267-4.101273a5.317008 5.317008 0 0 0-3.808325-1.611214z" fill="#FFFFFF" p-id="969"></path></svg>